<?xml version="1.0" encoding="utf-8"?>
<!-- Svg Vector Icons : http://www.onlinewebfonts.com/icon -->
<!DOCTYPE svg PUBLIC "-//W3C//DTD SVG 1.1//EN" "http://www.w3.org/Graphics/SVG/1.1/DTD/svg11.dtd">
<svg version="1.1" xmlns="http://www.w3.org/2000/svg" xmlns:xlink="http://www.w3.org/1999/xlink" x="0px" y="0px" viewBox="0 0 1000 1000" enable-background="new 0 0 1000 1000" xml:space="preserve">
<metadata> Svg Vector Icons : http://www.onlinewebfonts.com/icon </metadata>
<g><g transform="translate(0.000000,469.000000) scale(0.100000,-0.100000)"><path d="M3478.5,4143.7c-317.8-76.6-606.9-348.4-725.6-683.5c-15.3-42.1-24.9-405.9-32.5-1143l-9.6-1081.7l-928.6-9.6l-928.6-9.6l-151.3-72.7c-268-126.4-440.4-312.1-547.6-587.8l-47.9-124.4l-5.7-2134.8c-3.8-1510.6,1.9-2173.1,15.3-2263c59.4-350.4,319.7-654.8,670.1-783l124.4-46h4087.6h4087.6l124.4,46c338.9,124.4,589.7,407.8,662.4,746.7c21.1,103.4,26.8,494,26.8,2203.7c0,1154.5-7.7,2123.3-17.2,2182.6c-44,262.3-183.8,492.1-398.2,651c-258.5,187.6-208.7,180-1269.4,191.5l-928.6,9.6l-9.6,1081.7c-7.7,737.1-17.2,1100.9-32.5,1143c-120.6,340.8-407.8,606.9-735.2,685.4C6333.1,4185.8,3650.8,4185.8,3478.5,4143.7z M6618.4,3772.2c93.8-47.9,151.3-93.8,203-162.7c130.2-172.3,130.2-164.7,130.2-1324.9V1245H4998.7H3045.8v1039.6c0,1139.2,0,1139.2,113,1303.8c70.8,103.4,172.3,176.1,314,225.9c93.8,30.6,195.3,32.5,1556.6,28.7l1457-3.8L6618.4,3772.2z M9176.3,864c139.8-53.6,270-180,337-323.6l51.7-109.1l5.7-2161.6c5.7-2345.4,7.7-2289.8-99.6-2458.3c-59.3-95.7-168.5-189.6-277.6-239.3l-88.1-42.1H4998.7H891.9l-109.1,53.6c-137.8,67-270,210.6-315.9,344.6c-32.5,93.8-34.5,222.1-34.5,2301.3V431.3l63.2,128.3C591.3,756.8,754,871.7,968.5,898.5c53.6,5.7,1897.4,11.5,4097.2,9.6l4001.5-1.9L9176.3,864z"/><path d="M4878.1,2646.5l-970.7-970.7l114.9-114.9l114.9-114.9l976.4,976.4l976.4,976.4L5980.8,3508c-61.3,61.3-114.9,111-120.6,111C5854.5,3619.1,5414.1,3182.6,4878.1,2646.5z"/><path d="M4206,3494.6c-168.5-63.2-302.5-216.3-337-379.1c-32.6-157,13.4-283.4,149.3-415.5c158.9-155.1,325.5-193.4,501.6-113c181.9,82.3,306.3,262.3,306.3,444.2C4826.4,3341.5,4479.8,3599.9,4206,3494.6z M4443.4,3178.7c44-23,76.6-128.3,63.2-199.1c-13.4-68.9-74.7-107.2-170.4-107.2c-65.1,0-90,9.6-122.5,53.6c-53.6,65.1-42.1,187.6,19.1,237.4C4278.8,3201.7,4387.9,3209.4,4443.4,3178.7z"/><path d="M5559.6,2529.7c-91.9-23-227.8-111-281.4-180c-105.3-137.9-137.9-323.6-80.4-463.3c40.2-93.8,172.3-229.7,270-275.7c386.7-181.9,815.6,271.9,610.8,647.1C5971.3,2456.9,5747.3,2573.7,5559.6,2529.7z M5777.9,2177.4c15.3-15.3,32.5-61.3,38.3-101.5c7.7-57.4,0-86.2-32.6-126.4c-34.5-45.9-55.5-53.6-132.1-53.6c-97.7,0-139.8,28.7-160.8,111c-15.3,65.1,19.1,168.5,68.9,191.5C5613.3,2227.2,5741.5,2213.8,5777.9,2177.4z"/><path d="M1518-116.3c-143.6-55.5-310.2-216.3-379.1-365.7l-55.5-120.6l-5.7-1525.9l-5.8-1527.8h164.7h162.7v562.9v562.9l91.9,11.5c49.8,5.8,381,9.6,737.1,9.6l645.2-1.9v-572.5v-572.5h162.7H3199l-3.8,1547l-5.7,1545.1l-53.6,101.5c-74.7,143.6-166.6,237.4-304.4,312.1l-120.6,65.1l-545.7,3.8C1653.9-78,1613.7-79.9,1518-116.3z M2751-453.2c122.5-88.1,122.5-91.9,122.5-961.1v-786.9l-731.4,3.8l-733.3,5.7l-5.7,727.5c-5.7,798.4,1.9,892.2,88.1,970.7c97.6,91.9,99.6,91.9,664.4,86.2C2676.3-411.1,2693.5-413,2751-453.2z"/><path d="M3853.8-1602l5.7-1527.8l55.5-120.6c70.8-153.2,235.5-310.2,384.8-365.7c103.4-38.3,141.7-40.2,978.4-40.2h871.1l-5.7,158.9l-5.7,157l-884.5,9.6c-855.8,9.6-884.5,11.5-936.2,49.8c-28.7,21.1-70.8,63.2-91.9,91.9c-40.2,51.7-40.2,70.8-45.9,1583.4l-3.8,1529.8h-164.7H3848L3853.8-1602z"/><path d="M7079.8-114.4c-212.5-82.3-369.5-256.6-425-472.9c-42.1-162.7-42.1-2395.1,0-2557.9c51.7-197.2,189.6-363.8,373.3-451.9l105.3-49.8l972.6-5.7l970.7-5.7v164.6v162.7h-955.4h-953.5l-63.2,44c-34.5,23-82.3,67-103.4,95.7c-40.2,53.6-40.2,65.1-40.2,1324.9c0,1259.8,0,1271.3,40.2,1324.9c21.1,28.7,68.9,72.7,103.4,97.6l63.2,42.1h953.5h955.4v162.7v162.7h-951.6C7238.7-78,7166-79.9,7079.8-114.4z"/></g></g>
</svg>