<svg xmlns="http://www.w3.org/2000/svg" viewBox="0 0 100 125" x="0px" y="0px"><path d="M33.87,34.44l.19,.26c.38,.6,.77,1.14,1.14,1.6,3.3,4.74,14.05,21.06,14.05,32.22,0,.41,.34,.75,.75,.75s.75-.34,.75-.75c0-11.16,10.75-27.48,14.02-32.18,.4-.51,.78-1.04,1.14-1.6l.22-.3c.06-.08,.1-.16,.12-.25,1.74-2.93,2.66-6.26,2.66-9.65,0-10.44-8.48-18.94-18.9-18.94S31.1,14.09,31.1,24.54c0,3.38,.92,6.7,2.65,9.63,.02,.1,.07,.19,.13,.27ZM50,7.1c9.6,0,17.4,7.82,17.4,17.44,0,3.19-.88,6.32-2.56,9.06-.03,.05-.05,.09-.07,.14l-.11,.15c-.35,.55-.7,1.05-1.1,1.55-3.59,5.16-11.16,16.89-13.57,27.19-2.41-10.29-9.98-22.03-13.59-27.23-.37-.46-.72-.96-1.1-1.55l-.08-.12s-.04-.09-.07-.14c-1.67-2.74-2.56-5.88-2.56-9.06,0-9.62,7.81-17.44,17.4-17.44Zm0,27.4c5.48,0,9.95-4.47,9.95-9.96s-4.46-9.96-9.95-9.96-9.95,4.47-9.95,9.96,4.46,9.96,9.95,9.96Zm0-18.43c4.66,0,8.45,3.8,8.45,8.46s-3.79,8.46-8.45,8.46-8.45-3.8-8.45-8.46,3.79-8.46,8.45-8.46Zm-3.58,51.01c.02,.41-.3,.76-.72,.78-15.55,.7-24.84,4.83-24.85,8.42,0,2.09,3,4.22,8.23,5.84,5.57,1.73,13,2.68,20.91,2.68h0c17.43,0,29.14-4.41,29.14-8.52,0-3.59-9.29-7.72-24.84-8.42-.41-.02-.73-.37-.72-.78,.02-.41,.36-.75,.78-.72,18.05,.81,26.27,5.71,26.27,9.92,0,6.27-15.58,10.02-30.64,10.02h0c-8.06,0-15.64-.98-21.35-2.75-6.07-1.88-9.28-4.4-9.28-7.27,0-4.21,8.22-9.11,26.28-9.92,.41-.03,.76,.3,.78,.72Zm48.58,9.49c0,10-19.77,17.83-45,17.83-11.91,0-23.12-1.79-31.56-5.05-8.67-3.34-13.44-7.88-13.44-12.78,0-8.96,16.1-16.38,38.27-17.64,.42-.01,.77,.29,.79,.71,.02,.41-.29,.77-.71,.79-21.01,1.2-36.85,8.14-36.85,16.14,0,4.17,4.55,8.32,12.48,11.38,8.27,3.19,19.29,4.95,31.02,4.95,23.58,0,43.5-7.48,43.5-16.33,0-7.86-15.84-14.78-36.85-16.1-.41-.03-.73-.38-.7-.8s.39-.73,.8-.7c22.17,1.39,38.26,8.8,38.26,17.6Zm-57.14-.7c0,2.71,6.3,3.95,12.14,3.95s12.14-1.23,12.14-3.95-6.3-3.95-12.14-3.95-12.14,1.23-12.14,3.95Zm12.14-2.45c6.6,0,10.64,1.58,10.64,2.45s-4.04,2.45-10.64,2.45-10.64-1.58-10.64-2.45,4.04-2.45,10.64-2.45Z"/><text x="0" y="115" fill="#000000" font-size="5px" font-weight="bold" font-family="'Helvetica Neue', Helvetica, Arial-Unicode, Arial, Sans-serif">Created by Bold Yellow</text><text x="0" y="120" fill="#000000" font-size="5px" font-weight="bold" font-family="'Helvetica Neue', Helvetica, Arial-Unicode, Arial, Sans-serif">from the Noun Project</text></svg>